<svg
  xmlns="http://www.w3.org/2000/svg"
  width="64"
  height="64"
  viewBox="0 0 64 64"
  role="img"
  aria-labelledby="vera-chibi-title"
>
  <title id="vera-chibi-title">Vera chibi portrait</title>
  <defs>
    <linearGradient id="hair" x1="14" y1="8" x2="52" y2="58" gradientUnits="userSpaceOnUse">
      <stop stop-color="#34364f" />
      <stop offset="0.48" stop-color="#1d1e2e" />
      <stop offset="1" stop-color="#10111b" />
    </linearGradient>
    <linearGradient id="skin" x1="27" y1="19" x2="38" y2="58" gradientUnits="userSpaceOnUse">
      <stop stop-color="#fff6ef" />
      <stop offset="1" stop-color="#ffd8c3" />
    </linearGradient>
    <linearGradient id="iris" x1="0" y1="0" x2="0" y2="1">
      <stop stop-color="#51469f" />
      <stop offset="0.5" stop-color="#596fe7" />
      <stop offset="0.78" stop-color="#4ed8ec" />
      <stop offset="1" stop-color="#c5f28d" />
    </linearGradient>
    <linearGradient id="lens" x1="17" y1="30" x2="47" y2="45" gradientUnits="userSpaceOnUse">
      <stop stop-color="#d9f4ff" stop-opacity="0.16" />
      <stop offset="1" stop-color="#94c9df" stop-opacity="0.04" />
    </linearGradient>
  </defs>

  <path
    d="M5.5 32.5C5.5 14.3 16.5 3 32 3c16.9 0 27 12.8 27 31.1 0 12.7-4.8 23.3-14.6 27.7l-5-8.9H23.6l-5 8.5C9.4 57.3 5.5 46 5.5 32.5Z"
    fill="url(#hair)"
    stroke="#0a0b12"
    stroke-width="1.5"
  />

  <path
    d="M14.4 35.7c-2.9-1.6-5.5.1-5.3 3.5.2 4.1 3.1 7.1 6.5 5.5m34-9c2.9-1.6 5.5.1 5.3 3.5-.2 4.1-3.1 7.1-6.5 5.5"
    fill="url(#skin)"
    stroke="#bc6e61"
    stroke-linecap="round"
    stroke-linejoin="round"
    stroke-width="1.1"
  />
  <path
    d="M12.5 35.4C13.1 22.7 20.2 15 32 15s18.9 7.7 19.5 20.4l-.7 9.1C49.7 53.4 42.3 59 32 59s-17.7-5.6-18.8-14.5l-.7-9.1Z"
    fill="url(#skin)"
    stroke="#bc6e61"
    stroke-width="1.2"
  />

  <path
    d="M8.8 35.2C8.4 19.6 17.3 6.9 31.2 5.3c-8 3.1-9.3 8.2-11.7 15.1-2.2 6.3-4 11.4-10.7 14.8Z"
    fill="url(#hair)"
    stroke="#0b0c15"
    stroke-linejoin="round"
    stroke-width="1.2"
  />
  <path
    d="M31.2 5.3C45.8 4.8 56.7 17.1 56.4 34c-.2 11.7-3.8 21.2-11.3 26.2 4.6-8.7 6-18.6 4.3-29.5-1.3-8.6-6.6-15.5-18.2-25.4Z"
    fill="url(#hair)"
    stroke="#0b0c15"
    stroke-linejoin="round"
    stroke-width="1.2"
  />
  <path
    d="M31.2 5.5c-1.2 5.1-1 9.4 1.4 12.3-6.5-.7-10.9 2.7-13.2 8.1-2 4.8-3.6 7.6-7.5 9.8 4.8-1 9.1-4.5 12.5-10.7 2.5-4.6 5-6.7 8.2-7.2 3.5-1.8 7.9-1.6 13.2.5-2.7-5.8-7.6-10-14.6-12.8Z"
    fill="url(#hair)"
    stroke="#0b0c15"
    stroke-linejoin="round"
    stroke-width="1.2"
  />
  <path d="M29.2 6.9c-5.7 4.8-8.9 11.1-10.8 18.2" fill="none" stroke="#676987" stroke-linecap="round" stroke-width="1.1" />
  <path d="M34.4 7c7.3 3.7 12.6 10.2 15 18.3" fill="none" stroke="#545773" stroke-linecap="round" stroke-width="1.1" />
  <path d="M15.2 48.3c.9 5 2.2 8.4 4.2 11.4" fill="none" stroke="#484b68" stroke-linecap="round" stroke-width="1" />
  <path d="M49 47.2c-.5 5-1.7 8.7-3.6 11.7" fill="none" stroke="#484b68" stroke-linecap="round" stroke-width="1" />

  <path d="M18.4 31.1c3.2-1.9 6.8-1.8 9.6.1" fill="none" stroke="#161622" stroke-linecap="round" stroke-width="1.5" />
  <path d="M36 31.2c2.8-1.9 6.4-2 9.6-.1" fill="none" stroke="#161622" stroke-linecap="round" stroke-width="1.5" />

  <path d="M18.3 37c2.8-3 7.4-3.1 10.3.1-2.9 4-7.6 4-10.3-.1Z" fill="#fff" stroke="#171724" stroke-linejoin="round" stroke-width="1" />
  <ellipse cx="23.5" cy="37.3" rx="3.5" ry="4.6" fill="url(#iris)" />
  <ellipse cx="23.5" cy="36.5" rx="1.55" ry="2.6" fill="#232563" />
  <circle cx="22.4" cy="34.9" r="1.05" fill="#fff" />
  <circle cx="25.3" cy="38.6" r=".65" fill="#bdf9ff" />

  <path d="M35.4 37.1c2.9-3.2 7.5-3.1 10.3-.1-2.7 4.1-7.4 4.1-10.3.1Z" fill="#fff" stroke="#171724" stroke-linejoin="round" stroke-width="1" />
  <ellipse cx="40.5" cy="37.3" rx="3.5" ry="4.6" fill="url(#iris)" />
  <ellipse cx="40.5" cy="36.5" rx="1.55" ry="2.6" fill="#232563" />
  <circle cx="39.4" cy="34.9" r="1.05" fill="#fff" />
  <circle cx="42.3" cy="38.6" r=".65" fill="#bdf9ff" />

  <path d="M18 36.1c2-1.6 4.3-2.2 6.5-1.7M46 36.1c-2-1.6-4.3-2.2-6.5-1.7" fill="none" stroke="#0b0b11" stroke-linecap="round" stroke-width="1.6" />
  <path d="M17.7 35.6 16 34.8m2.4.1-1-1.2M46.3 35.6l1.7-.8m-2.4.1 1-1.2" fill="none" stroke="#0b0b11" stroke-linecap="round" stroke-width=".8" />

  <g fill="url(#lens)" stroke="#566173" stroke-width="1.05">
    <ellipse cx="23.5" cy="37.8" rx="8.2" ry="7.4" />
    <ellipse cx="40.5" cy="37.8" rx="8.2" ry="7.4" />
  </g>
  <path d="M31.7 36.7c.6-.8 1.5-.8 2.1 0M15.4 36.5l-3.7-1.4m36.9 1.4 3.7-1.4" fill="none" stroke="#566173" stroke-linecap="round" stroke-width="1.25" />
  <path d="M16.7 33.4c2.6-2.8 6.5-3.7 10.3-1.9M37 31.5c3.8-1.8 7.7-.9 10.3 1.9" fill="none" stroke="#fff" stroke-linecap="round" stroke-opacity=".5" stroke-width=".65" />

  <path d="M31.6 39.7c-.7 1.4-.5 2.3.7 2.4" fill="none" stroke="#d79783" stroke-linecap="round" stroke-width=".75" />
  <path d="M29.7 48c1.5.7 3.1.7 4.6 0" fill="none" stroke="#9f5d60" stroke-linecap="round" stroke-width=".9" />
  <ellipse cx="18.5" cy="44.1" rx="3.2" ry="1.5" fill="#f3a7a5" opacity=".18" />
  <ellipse cx="45.5" cy="44.1" rx="3.2" ry="1.5" fill="#f3a7a5" opacity=".18" />
</svg>
